<svg xmlns="http://www.w3.org/2000/svg" fill="none" viewBox="0 0 629 109">
  <path opacity=".5" d="M628.5 54.5c0 3.552-2.076 7.099-6.213 10.602-4.132 3.5-10.257 6.898-18.192 10.15-15.865 6.5-38.853 12.364-67.295 17.293C479.922 102.4 401.327 108.5 314.5 108.5s-165.422-6.099-222.3-15.955C63.757 87.615 40.77 81.75 24.904 75.25 16.97 72 10.845 68.6 6.713 65.101 2.576 61.6.5 58.052.5 54.5c0-3.552 2.076-7.099 6.213-10.602 4.132-3.5 10.257-6.898 18.191-10.15 15.866-6.5 38.853-12.364 67.296-17.293C149.078 6.6 227.673.5 314.5.5s165.422 6.099 222.3 15.955c28.442 4.93 51.43 10.794 67.295 17.294 7.935 3.25 14.06 6.65 18.192 10.149 4.137 3.503 6.213 7.05 6.213 10.602z" fill="#DCDBE0" stroke="#fff"/>
</svg>
